<?xml version="1.0" encoding="UTF-8" standalone="no"?>
<!-- Created with Inkscape (http://www.inkscape.org/) -->
<svg
xmlns:svg="http://www.w3.org/2000/svg"
xmlns="http://www.w3.org/2000/svg"
xmlns:xlink="http://www.w3.org/1999/xlink"
version="1.0"
width="576.84375"
height="451.1875"
id="svg2">
<defs
id="defs4">
<linearGradient
id="linearGradient3308">
<stop
id="stop3310"
style="stop-color:#009370;stop-opacity:1"
offset="0" />
<stop
id="stop3314"
style="stop-color:#009370;stop-opacity:0.00392157"
offset="0.5" />
<stop
id="stop3312"
style="stop-color:#009370;stop-opacity:1"
offset="1" />
</linearGradient>
<linearGradient
id="linearGradient2492">
<stop
id="stop2494"
style="stop-color:#009370;stop-opacity:1"
offset="0" />
<stop
id="stop2496"
style="stop-color:#009370;stop-opacity:0"
offset="1" />
</linearGradient>
<linearGradient
id="linearGradient2422">
<stop
id="stop2424"
style="stop-color:#009370;stop-opacity:1"
offset="0" />
<stop
id="stop2426"
style="stop-color:#009370;stop-opacity:1"
offset="1" />
</linearGradient>
<linearGradient
id="linearGradient3259">
<stop
id="stop3261"
style="stop-color:#009370;stop-opacity:1"
offset="0" />
<stop
id="stop3263"
style="stop-color:#009370;stop-opacity:1"
offset="1" />
</linearGradient>
<linearGradient
id="linearGradient3383">
<stop
id="stop3385"
style="stop-color:#009370;stop-opacity:1"
offset="0" />
<stop
id="stop3387"
style="stop-color:#009370;stop-opacity:0"
offset="1" />
</linearGradient>
<linearGradient
x1="176"
y1="461.36218"
x2="480.08057"
y2="461.36218"
id="linearGradient3306"
xlink:href="#linearGradient3308"
gradientUnits="userSpaceOnUse" />
<radialGradient
cx="318.08014"
cy="434.95306"
r="279.59375"
fx="318.08014"
fy="434.95306"
id="radialGradient3318"
xlink:href="#linearGradient2422"
gradientUnits="userSpaceOnUse"
gradientTransform="matrix(0,0.9684509,-1.0593293,0,795.92711,169.31722)" />
</defs>
<g
transform="translate(-47.09375,-233.6875)"
id="layer1">
<path
d="M 56.6875,239.96875 C 88.229247,276.75255 117.83371,318.00993 127.8125,366.21875 C 130.97707,383.52295 127.28992,401.0669 123.10656,417.70337 C 119.99966,436.61165 119.79913,456.91859 127.59375,474.625 C 151.24365,456.61665 183.64761,458.25347 211.25621,464.44111 C 228.32853,468.42165 246.3397,474.4597 258.3125,487.71875 C 259.75935,491.42819 254.05648,492.44297 252.3125,489.875 C 218.69543,470.81623 176.65711,475.68212 142.32415,490.28415 C 128.72116,495.97269 115.70516,503.06589 103.40625,511.1875 C 133.6076,527.82742 156.63202,557.36349 163.49528,591.3132 C 169.99271,616.94407 173.98869,646.06593 194.9375,664.46875 C 202.41528,671.32969 210.96374,676.95424 220.40625,680.78125 C 239.02231,643.07131 266.55448,606.6587 306.75,590.6875 C 324.25074,583.0769 344.81432,582.17324 362.375,590 C 400.92332,604.16155 427.81344,638.05005 446.875,673.0625 C 448.83973,675.06185 448.41726,681.01547 451.90625,680.6875 C 475.56899,670.01066 494.39368,648.42347 499.625,622.65625 C 507.34127,593.35188 512.37083,561.00124 533.9375,538.1875 C 543.56474,527.42368 555.17661,518.57626 567.65625,511.21875 C 532.65573,487.96682 489.79072,471.70218 447.20601,479.34776 C 433.36513,481.87622 420.68153,488.29964 408.34375,494.90625 C 417.12932,476.49495 438.62688,470.54597 456.72217,465.17199 C 483.93397,458.23766 515.36938,456.77832 539.96875,472 C 542.96723,475.2868 544.6045,474.38066 545.2991,470.02489 C 554.17424,444.73175 548.50527,417.40308 542.65625,392.125 C 538.87749,355.41287 556.97966,321.2858 575.66881,291.06704 C 587.38092,272.70401 600.71937,255.41551 615.0625,239.03125 C 523.55992,264.5563 436.749,313.95542 375.97055,387.75081 C 362.91021,403.68905 351.54428,420.84165 341.15625,438.53125 C 343.021,393.16754 344.37555,346.61475 360.875,303.75 C 365.15706,300.91359 370.08206,307.1435 374.21875,303.21875 C 380.25592,300.18484 381.20316,289.29626 373.53125,287.875 C 365.04999,286.574 360.53186,295.79473 358.84576,302.68979 C 345.93135,339.12032 342.77605,378.15089 339.73368,416.49887 C 338.8601,426.13946 339.88822,436.31855 337.6875,445.65625 C 335.09631,448.7399 331.06644,444.57446 332.21431,441.40689 C 330.52098,392.79841 326.89268,343.22993 310.3125,297.25 C 308.76681,288.93191 294.92264,282.99544 292.09375,293.34375 C 289.81962,302.61677 303.2945,308.23296 309,301.03125 C 325.69417,342.01622 327.70853,386.90702 329.53125,430.625 C 326.02193,434.25759 323.09976,428.28978 322.09375,425.625 C 275.8951,350.79079 202.26251,296.16476 122.05774,262.12451 C 100.59815,252.93148 78.495321,244.97495 55.875,239.03125 L 56.529931,239.78694 L 56.6875,239.96875 z"
id="path2410"
style="fill:url(#radialGradient3318);fill-opacity:1;fill-rule:evenodd;stroke:none;stroke-width:1px;stroke-linecap:butt;stroke-linejoin:miter;stroke-opacity:1" />
<path
d="M 47.09375,233.6875 C 47.093753,233.68751 141.93948,332.77254 123.71875,400.65625 C 109.62453,453.16612 126.59375,479.59375 126.59375,479.59375 C 126.59375,479.59375 145.37193,457.02767 197.6875,464.875 C 240.11391,471.23897 255.1875,488.15625 255.1875,488.15625 C 255.18749,488.15626 195.55514,445.03096 97.59375,511.40625 C 197.32806,566.46755 132.42917,645.55203 221.59375,684.875 C 222.84341,684.70429 259.29322,593.35317 335.53125,587.09375 C 411.75015,593.37329 448.188,684.70431 449.4375,684.875 C 538.60208,645.55203 473.70316,566.46755 573.4375,511.40625 C 475.47611,445.03096 415.84376,488.15626 415.84375,488.15625 C 415.84375,488.15625 430.91734,471.23897 473.34375,464.875 C 525.65932,457.02767 544.43747,479.59375 544.4375,479.59375 C 544.4375,479.59375 561.40669,453.16612 547.3125,400.65625 C 529.09177,332.77254 623.93747,233.68751 623.9375,233.6875 C 623.9375,233.6875 436.77754,273.31863 344.53125,427.28125 C 344.88274,415.36493 345.93595,392.74933 349.28125,365.03125 C 353.86897,327.01871 363.43751,305.65625 363.4375,305.65625 C 363.4375,305.65625 371.72597,311.12444 379,302.8125 C 388.87045,291.53364 374.38899,278.41179 363.4375,287.96875 C 350.88568,298.92226 336.45124,373.93624 335.875,442.8125 C 335.75216,443.05213 335.62012,443.28888 335.5,443.53125 C 335.38194,443.29307 335.27698,443.04799 335.15625,442.8125 C 334.58001,373.93624 320.14557,298.92226 307.59375,287.96875 C 296.64226,278.41179 282.1608,291.53364 292.03125,302.8125 C 299.30528,311.12444 307.59375,305.65625 307.59375,305.65625 C 307.59374,305.65625 317.16228,327.01871 321.75,365.03125 C 325.0953,392.74933 326.14851,415.36493 326.5,427.28125 C 234.25371,273.31863 47.09375,233.6875 47.09375,233.6875 z M 116.6875,287.0625 C 116.6875,287.06249 173.02647,300.61075 231.59375,344.1875 C 305.12541,398.89843 335.15625,474.15625 335.15625,474.15625 L 335.5,459.1875 L 335.875,474.15625 C 335.875,474.15625 365.90584,398.89843 439.4375,344.1875 C 498.00478,300.61075 554.34372,287.06249 554.34375,287.0625 C 554.34375,287.0625 513.39061,355.87644 530.8125,404.53125 C 544.81304,443.63119 529.06248,453.78126 529.0625,453.78125 C 529.0625,453.78125 434.64209,428.80403 385.4375,511 C 456.81919,471.89107 501.29382,488.94196 541.625,510 C 541.625,510 497.90708,538.23417 492.03125,580.6875 C 485.01266,631.39736 460.65625,643.5 460.65625,643.5 C 460.65625,643.5 427.25302,602.66542 398.96875,589.9375 C 372.27824,577.92677 339.52512,572.23613 335.875,571.625 L 335.875,571.5 C 335.875,571.5 335.58413,571.55383 335.53125,571.5625 C 335.47107,571.55262 335.15625,571.5 335.15625,571.5 L 335.15625,571.625 C 331.44228,572.24732 298.72215,577.94066 272.0625,589.9375 C 243.77823,602.66542 210.375,643.5 210.375,643.5 C 210.375,643.5 186.01859,631.39736 179,580.6875 C 173.12417,538.23417 129.40625,510 129.40625,510 C 169.7374,488.94196 214.21206,471.89107 285.59375,511 C 236.38916,428.80403 141.96875,453.78125 141.96875,453.78125 C 141.96874,453.78126 126.21821,443.63119 140.21875,404.53125 C 157.64061,355.87644 116.6875,287.0625 116.6875,287.0625 z"
id="path3321"
style="fill:#000000;fill-opacity:1;fill-rule:evenodd;stroke:none;stroke-width:1px;stroke-linecap:butt;stroke-linejoin:miter;stroke-opacity:1" />
<path
d="M 318.9375,440.84375 C 343.64204,487.94886 315.71874,525.84376 315.71875,525.84375 C 315.71875,525.84375 311.46818,567.17663 335.15625,650.96875 C 358.84432,567.17663 354.625,525.84375 354.625,525.84375 C 354.62501,525.84376 326.67046,487.94886 351.375,440.84375 L 335.15625,455.125 L 318.9375,440.84375 z"
id="path3201"
style="fill:#000000;fill-opacity:1;fill-rule:evenodd;stroke:#000000;stroke-width:1px;stroke-linecap:butt;stroke-linejoin:miter;stroke-opacity:1" />
<path
d="M 144.80064,310.30942 C 255.81641,352.02872 310.97073,450.31656 310.97073,450.31656 C 310.97073,450.31656 296.12149,418.49676 228.23924,390.21249 C 162.96784,363.01607 161.0641,382.43431 161.0641,382.43431 C 164.12822,365.46375 159.41418,338.59369 144.80064,310.30942 z"
id="path3359"
style="fill:#009370;fill-opacity:1;fill-rule:evenodd;stroke:none;stroke-width:1px;stroke-linecap:butt;stroke-linejoin:miter;stroke-opacity:1" />
<path
d="M 525.22408,310.30942 C 414.20831,352.02872 359.05399,450.31656 359.05399,450.31656 C 359.05399,450.31656 373.90323,418.49676 441.78548,390.21249 C 507.05688,363.01607 508.96062,382.43431 508.96062,382.43431 C 505.8965,365.46375 510.61054,338.59369 525.22408,310.30942 z"
id="path3377"
style="fill:#009370;fill-opacity:1;fill-rule:evenodd;stroke:none;stroke-width:1px;stroke-linecap:butt;stroke-linejoin:miter;stroke-opacity:1" />
<path
d="M 156.64988,511.62775 C 213.92553,483.34347 271.0192,516.43104 271.0192,516.43104 C 271.0192,516.43104 236.02083,507.30107 207.04685,515.91633 C 188.38445,521.46549 182.0806,542.93283 182.0806,542.93283 C 177.01647,530.34442 168.88127,518.5489 156.64988,511.62775 z"
id="path3413"
style="fill:#009370;fill-opacity:1;fill-rule:evenodd;stroke:none;stroke-width:1px;stroke-linecap:butt;stroke-linejoin:miter;stroke-opacity:1" />
<path
d="M 514.0192,511.62775 C 456.74355,483.34347 399.64988,516.43104 399.64988,516.43104 C 399.64988,516.43104 434.64825,507.30107 463.62223,515.91633 C 482.28463,521.46549 488.58848,542.93283 488.58848,542.93283 C 493.65261,530.34442 501.78781,518.5489 514.0192,511.62775 z"
id="path3417"
style="fill:#009370;fill-opacity:1;fill-rule:evenodd;stroke:none;stroke-width:1px;stroke-linecap:butt;stroke-linejoin:miter;stroke-opacity:1" />
</g>
</svg>
